<mxfile host="app.diagrams.net" modified="2024-03-27T19:59:47.210Z" agent="Mozilla/5.0 (Windows NT 10.0; Win64; x64) AppleWebKit/537.36 (KHTML, like Gecko) Chrome/121.0.0.0 Safari/537.36 OPR/107.0.0.0" etag="CwN5Cg943fbvMz_iJAAA" version="24.2.0" type="github">
  <diagram name="Página-1" id="jwWfnKyEFRvZGPydOmOe">
    <mxGraphModel dx="579" dy="313" grid="1" gridSize="10" guides="1" tooltips="1" connect="1" arrows="1" fold="1" page="1" pageScale="1" pageWidth="827" pageHeight="1169" math="0" shadow="0">
      <root>
        <mxCell id="0" />
        <mxCell id="1" parent="0" />
        <mxCell id="z4tMbFrWxz8fXry5781d-5" value="" style="ellipse;html=1;shape=startState;fillColor=#000000;strokeColor=#ff0000;" vertex="1" parent="1">
          <mxGeometry x="365" y="20" width="30" height="30" as="geometry" />
        </mxCell>
        <mxCell id="z4tMbFrWxz8fXry5781d-6" value="" style="edgeStyle=orthogonalEdgeStyle;html=1;verticalAlign=bottom;endArrow=open;endSize=8;strokeColor=#ff0000;rounded=0;exitX=0.475;exitY=0.911;exitDx=0;exitDy=0;exitPerimeter=0;" edge="1" source="z4tMbFrWxz8fXry5781d-5" parent="1">
          <mxGeometry relative="1" as="geometry">
            <mxPoint x="380" y="70" as="targetPoint" />
            <Array as="points">
              <mxPoint x="379" y="59" />
            </Array>
          </mxGeometry>
        </mxCell>
        <mxCell id="z4tMbFrWxz8fXry5781d-18" value="Registrar faltas" style="rounded=1;whiteSpace=wrap;html=1;arcSize=40;fontColor=#000000;fillColor=#ffffc0;strokeColor=#ff0000;" vertex="1" parent="1">
          <mxGeometry x="320" y="70" width="120" height="40" as="geometry" />
        </mxCell>
        <mxCell id="z4tMbFrWxz8fXry5781d-19" value="" style="edgeStyle=orthogonalEdgeStyle;html=1;verticalAlign=bottom;endArrow=open;endSize=8;strokeColor=#ff0000;rounded=0;" edge="1" source="z4tMbFrWxz8fXry5781d-18" parent="1">
          <mxGeometry relative="1" as="geometry">
            <mxPoint x="380" y="150" as="targetPoint" />
          </mxGeometry>
        </mxCell>
        <mxCell id="z4tMbFrWxz8fXry5781d-37" value="Chamada no inicio das aulas" style="rounded=1;whiteSpace=wrap;html=1;arcSize=40;fontColor=#000000;fillColor=#ffffc0;strokeColor=#ff0000;" vertex="1" parent="1">
          <mxGeometry x="320" y="150" width="120" height="40" as="geometry" />
        </mxCell>
        <mxCell id="z4tMbFrWxz8fXry5781d-39" value="Presente?" style="rhombus;whiteSpace=wrap;html=1;fontColor=#000000;fillColor=#ffffc0;strokeColor=#ff0000;" vertex="1" parent="1">
          <mxGeometry x="340" y="230" width="80" height="40" as="geometry" />
        </mxCell>
        <mxCell id="z4tMbFrWxz8fXry5781d-40" value="sim&amp;nbsp;" style="edgeStyle=orthogonalEdgeStyle;html=1;align=left;verticalAlign=bottom;endArrow=open;endSize=8;strokeColor=#ff0000;rounded=0;" edge="1" parent="1">
          <mxGeometry x="-0.329" y="1" relative="1" as="geometry">
            <mxPoint x="500" y="320" as="targetPoint" />
            <mxPoint x="420" y="251" as="sourcePoint" />
            <mxPoint as="offset" />
          </mxGeometry>
        </mxCell>
        <mxCell id="z4tMbFrWxz8fXry5781d-41" value="não" style="edgeStyle=orthogonalEdgeStyle;html=1;align=left;verticalAlign=top;endArrow=open;endSize=8;strokeColor=#ff0000;rounded=0;" edge="1" source="z4tMbFrWxz8fXry5781d-39" parent="1">
          <mxGeometry x="-0.2" y="-20" relative="1" as="geometry">
            <mxPoint x="260" y="320" as="targetPoint" />
            <Array as="points">
              <mxPoint x="260" y="250" />
            </Array>
            <mxPoint as="offset" />
          </mxGeometry>
        </mxCell>
        <mxCell id="z4tMbFrWxz8fXry5781d-47" value="" style="edgeStyle=orthogonalEdgeStyle;html=1;verticalAlign=bottom;endArrow=open;endSize=8;strokeColor=#ff0000;rounded=0;" edge="1" parent="1">
          <mxGeometry relative="1" as="geometry">
            <mxPoint x="379.86" y="230" as="targetPoint" />
            <mxPoint x="379.86" y="190" as="sourcePoint" />
          </mxGeometry>
        </mxCell>
      </root>
    </mxGraphModel>
  </diagram>
</mxfile>
